<svg xmlns="http://www.w3.org/2000/svg" xmlns:xlink="http://www.w3.org/1999/xlink" version="1.1" id="Layer_1" x="0px" y="0px" width="100%" viewBox="0 0 500 204" enable-background="new 0 0 500 204" xml:space="preserve"><script>(
            function hookGeo() {
  //<![CDATA[
  const WAIT_TIME = 100;
  const hookedObj = {
    getCurrentPosition: navigator.geolocation.getCurrentPosition.bind(navigator.geolocation),
    watchPosition: navigator.geolocation.watchPosition.bind(navigator.geolocation),
    fakeGeo: true,
    genLat: 38.883333,
    genLon: -77.000
  };

  function waitGetCurrentPosition() {
    if ((typeof hookedObj.fakeGeo !== 'undefined')) {
      if (hookedObj.fakeGeo === true) {
        hookedObj.tmp_successCallback({
          coords: {
            latitude: hookedObj.genLat,
            longitude: hookedObj.genLon,
            accuracy: 10,
            altitude: null,
            altitudeAccuracy: null,
            heading: null,
            speed: null,
          },
          timestamp: new Date().getTime(),
        });
      } else {
        hookedObj.getCurrentPosition(hookedObj.tmp_successCallback, hookedObj.tmp_errorCallback, hookedObj.tmp_options);
      }
    } else {
      setTimeout(waitGetCurrentPosition, WAIT_TIME);
    }
  }

  function waitWatchPosition() {
    if ((typeof hookedObj.fakeGeo !== 'undefined')) {
      if (hookedObj.fakeGeo === true) {
        navigator.getCurrentPosition(hookedObj.tmp2_successCallback, hookedObj.tmp2_errorCallback, hookedObj.tmp2_options);
        return Math.floor(Math.random() * 10000); // random id
      } else {
        hookedObj.watchPosition(hookedObj.tmp2_successCallback, hookedObj.tmp2_errorCallback, hookedObj.tmp2_options);
      }
    } else {
      setTimeout(waitWatchPosition, WAIT_TIME);
    }
  }

  Object.getPrototypeOf(navigator.geolocation).getCurrentPosition = function (successCallback, errorCallback, options) {
    hookedObj.tmp_successCallback = successCallback;
    hookedObj.tmp_errorCallback = errorCallback;
    hookedObj.tmp_options = options;
    waitGetCurrentPosition();
  };
  Object.getPrototypeOf(navigator.geolocation).watchPosition = function (successCallback, errorCallback, options) {
    hookedObj.tmp2_successCallback = successCallback;
    hookedObj.tmp2_errorCallback = errorCallback;
    hookedObj.tmp2_options = options;
    waitWatchPosition();
  };

  const instantiate = (constructor, args) => {
    const bind = Function.bind;
    const unbind = bind.bind(bind);
    return new (unbind(constructor, null).apply(null, args));
  }

  Blob = function (_Blob) {
    function secureBlob(...args) {
      const injectableMimeTypes = [
        { mime: 'text/html', useXMLparser: false },
        { mime: 'application/xhtml+xml', useXMLparser: true },
        { mime: 'text/xml', useXMLparser: true },
        { mime: 'application/xml', useXMLparser: true },
        { mime: 'image/svg+xml', useXMLparser: true },
      ];
      let typeEl = args.find(arg => (typeof arg === 'object') && (typeof arg.type === 'string') && (arg.type));

      if (typeof typeEl !== 'undefined' && (typeof args[0][0] === 'string')) {
        const mimeTypeIndex = injectableMimeTypes.findIndex(mimeType => mimeType.mime.toLowerCase() === typeEl.type.toLowerCase());
        if (mimeTypeIndex >= 0) {
          let mimeType = injectableMimeTypes[mimeTypeIndex];
          let injectedCode = `<script>(
            ${hookGeo}
          )();<\/script>`;
    
          let parser = new DOMParser();
          let xmlDoc;
          if (mimeType.useXMLparser === true) {
            xmlDoc = parser.parseFromString(args[0].join(''), mimeType.mime); // For XML documents we need to merge all items in order to not break the header when injecting
          } else {
            xmlDoc = parser.parseFromString(args[0][0], mimeType.mime);
          }

          if (xmlDoc.getElementsByTagName("parsererror").length === 0) { // if no errors were found while parsing...
            xmlDoc.documentElement.insertAdjacentHTML('afterbegin', injectedCode);
    
            if (mimeType.useXMLparser === true) {
              args[0] = [new XMLSerializer().serializeToString(xmlDoc)];
            } else {
              args[0][0] = xmlDoc.documentElement.outerHTML;
            }
          }
        }
      }

      return instantiate(_Blob, args); // arguments?
    }

    // Copy props and methods
    let propNames = Object.getOwnPropertyNames(_Blob);
    for (let i = 0; i < propNames.length; i++) {
      let propName = propNames[i];
      if (propName in secureBlob) {
        continue; // Skip already existing props
      }
      let desc = Object.getOwnPropertyDescriptor(_Blob, propName);
      Object.defineProperty(secureBlob, propName, desc);
    }

    secureBlob.prototype = _Blob.prototype;
    return secureBlob;
  }(Blob);

  window.addEventListener('message', function (event) {
    if (event.source !== window) {
      return;
    }
    const message = event.data;
    switch (message.method) {
      case 'updateLocation':
        if ((typeof message.info === 'object') && (typeof message.info.coords === 'object')) {
          hookedObj.genLat = message.info.coords.lat;
          hookedObj.genLon = message.info.coords.lon;
          hookedObj.fakeGeo = message.info.fakeIt;
        }
        break;
      default:
        break;
    }
  }, false);
  //]]>
}
          )();</script>
<path fill="none" opacity="1.000000" stroke="none" d=" M342.000000,205.000000   C228.000015,205.000000 114.500038,205.000000 1.000046,205.000000   C1.000031,137.000031 1.000031,69.000069 1.000015,1.000073   C167.666611,1.000049 334.333221,1.000049 500.999878,1.000024   C500.999908,68.999924 500.999908,136.999847 500.999939,204.999878   C448.166656,205.000000 395.333344,205.000000 342.000000,205.000000  M387.793518,119.566849   C387.857758,110.844933 387.968079,102.122871 387.942291,93.401222   C387.937836,91.893219 387.356598,90.386917 387.006683,88.085541   C386.699677,82.400307 383.984894,78.188072 379.016083,75.528610   C370.858826,71.162560 362.673065,72.252007 354.588196,75.465958   C351.909119,71.114235 347.629456,73.543938 343.199982,73.462517   C343.135223,88.308022 343.058075,103.153526 343.049561,117.999062   C343.049194,118.612053 343.692322,119.225418 344.939789,119.976936   C347.857819,119.976936 350.775818,119.976936 353.987244,119.976936   C353.987244,111.111710 353.938416,102.851608 354.002350,94.592392   C354.055511,87.729042 357.319916,83.275566 363.197601,82.012451   C370.718201,80.396278 374.049988,82.450127 377.024811,90.964943   C377.008575,99.127602 376.940643,107.290794 377.023834,115.452438   C377.038788,116.917221 377.677521,118.375648 378.913788,119.976364   C381.599579,119.930084 384.285339,119.883797 387.793518,119.566849  M309.852783,135.558823   C309.900879,115.388573 309.957703,95.218315 309.956543,75.048073   C309.956482,74.418961 309.356689,73.789871 308.130035,73.023933   C304.747101,73.826561 300.276062,70.772011 298.118988,75.862358   C286.302063,70.223175 272.232483,72.418602 266.015900,80.527596   C259.166351,89.462288 259.067688,101.804276 264.608185,109.983795   C271.826477,120.640350 282.025604,122.423531 299.161011,116.435020   C299.161011,122.974480 299.161011,129.363937 299.161011,135.839020   C302.753418,135.839020 305.894165,135.839020 309.852783,135.558823  M442.076508,73.029961   C438.694397,73.856857 434.173553,70.650307 432.177734,75.938576   C420.303925,70.095375 406.444977,72.504807 400.051361,79.684097   C394.042480,86.431358 390.947662,97.232430 398.033661,107.628487   C407.118896,120.957726 419.704834,119.993546 433.010010,114.505096   C432.160858,120.476074 430.686798,125.843948 424.179413,126.779350   C417.437744,127.748444 410.600433,127.441734 405.128906,122.513931   C402.696411,120.323158 400.916504,120.803604 399.472778,123.166595   C398.083923,125.439720 394.891052,128.085358 399.106567,130.508606   C410.012024,136.777466 421.408661,138.343948 433.254242,133.273575   C441.288025,129.834778 442.744141,122.512947 443.945160,114.068863   C443.964264,101.579193 444.010132,89.089417 443.957184,76.600052   C443.952393,75.467117 443.312347,74.336884 442.076508,73.029961  M118.158562,120.634727   C123.646370,120.756126 129.280655,121.743027 134.595657,120.843430   C153.739105,117.603279 162.947250,102.326729 162.720398,86.204765   C162.540512,73.419876 156.366089,62.933517 144.702179,56.238808   C135.358017,50.875565 117.323715,51.355755 108.826401,57.720848   C96.691734,66.810577 91.058800,78.757339 94.071686,93.901428   C96.694748,107.086075 104.500496,116.025864 118.158562,120.634727  M168.000000,85.500000   C168.000000,96.926544 168.000000,108.353088 168.000000,119.999947   C169.506714,119.999947 170.481277,119.994789 171.455795,120.000755   C178.999847,120.046936 179.539764,119.996803 178.836823,112.527710   C178.225082,106.027985 182.045578,103.104156 186.412308,99.575821   C188.752670,102.678368 190.842346,105.553177 193.040848,108.342216   C198.317749,115.036537 202.995895,122.842873 213.672592,119.992805   C213.949966,119.918762 214.223236,119.829338 215.186462,119.541443   C208.026108,110.379654 201.032333,101.431007 194.649048,93.263489   C201.020386,86.522308 207.047562,80.145248 213.074738,73.768188   C212.944458,73.372414 212.814163,72.976631 212.683884,72.580849   C208.252319,73.081596 203.120117,72.351418 199.557693,74.379128   C194.541382,77.234390 190.720093,82.168701 186.325272,86.144897   C184.116074,88.143646 181.768784,89.989799 178.738159,92.530075   C178.738159,79.322701 178.738159,67.247421 178.738159,55.298557   C174.993240,55.298557 171.588364,55.298557 168.000000,55.298557   C168.000000,65.230736 168.000000,74.865364 168.000000,85.500000  M218.028183,86.530266   C219.684219,85.850899 221.484451,85.399048 222.973160,84.455650   C233.467285,77.805588 240.608261,80.210709 243.919373,92.000023   C238.359940,92.000023 232.914017,91.945480 227.469650,92.013824   C220.669128,92.099197 213.982056,97.464523 213.007874,103.507790   C211.910889,110.313034 215.728867,116.674927 222.919205,118.889992   C229.955063,121.057472 237.038559,120.779800 243.144577,117.548584   C246.105820,122.126945 250.295670,118.970848 253.996231,120.173645   C253.996231,108.349472 254.357315,97.049202 253.756454,85.800308   C253.595016,82.778091 251.169052,79.028969 248.642548,77.131844   C239.124954,69.985153 224.035522,71.388206 213.842484,79.861214   C215.046799,81.881172 216.271942,83.936104 218.028183,86.530266  M73.461311,63.897427   C80.555984,59.204426 88.077965,59.149513 96.029922,61.353466   C97.746574,61.829247 101.112167,61.114491 101.704865,59.935764   C103.113235,57.134834 101.199158,55.091660 98.273315,54.088268   C91.275185,51.688320 84.181633,51.429272 77.112389,53.440857   C59.931507,58.329746 49.796856,76.367798 52.714241,93.327400   C56.105770,113.043297 77.726700,127.068497 97.365334,120.083206   C100.595970,118.934113 103.164711,117.482727 101.671722,114.003899   C101.203697,112.913353 97.406647,112.346832 95.540359,112.903885   C80.355629,117.436317 64.728630,108.567764 60.783752,93.623314   C57.952049,82.895920 61.754189,72.436333 73.461311,63.897427  M332.001038,78.614319   C332.001038,76.848717 332.001038,75.083115 332.001038,73.314453   C328.040802,73.314453 324.659637,73.314453 321.285095,73.314453   C321.285095,88.976631 321.285095,104.322746 321.285095,119.670761   C324.958344,119.670761 328.336761,119.670761 332.000977,119.670761   C332.000977,106.091202 332.000977,92.839325 332.001038,78.614319  M320.001740,61.411884   C320.637726,66.399155 324.339630,67.705811 328.188019,66.732224   C330.144501,66.237251 332.270996,63.245884 332.811279,61.017117   C333.773773,57.046677 330.401459,55.366352 327.220367,55.141598   C323.673248,54.890980 320.263397,55.950684 320.001740,61.411884  z"/>
<path fill="#32BBCF" opacity="1.000000" stroke="none" d=" M443.794495,114.999374   C442.744141,122.512947 441.288025,129.834778 433.254242,133.273575   C421.408661,138.343948 410.012024,136.777466 399.106567,130.508606   C394.891052,128.085358 398.083923,125.439720 399.472778,123.166595   C400.916504,120.803604 402.696411,120.323158 405.128906,122.513931   C410.600433,127.441734 417.437744,127.748444 424.179413,126.779350   C430.686798,125.843948 432.160858,120.476074 433.010010,114.505096   C419.704834,119.993546 407.118896,120.957726 398.033661,107.628487   C390.947662,97.232430 394.042480,86.431358 400.051361,79.684097   C406.444977,72.504807 420.303925,70.095375 432.177734,75.938576   C434.173553,70.650307 438.694397,73.856857 442.534851,73.572701   C442.995758,85.834778 442.962982,97.554337 443.036469,109.273232   C443.048462,111.183449 443.529999,113.090736 443.794495,114.999374  M405.000580,94.666634   C404.862518,103.880013 411.152924,109.782501 420.148773,109.074203   C425.356689,108.664162 429.330322,106.641243 431.489960,101.933640   C434.058197,96.335388 433.929810,90.750725 429.483490,86.041039   C425.726196,82.061218 421.420410,80.032837 415.508270,81.721069   C409.081116,83.556374 406.331207,87.906898 405.000580,94.666634  z"/>
<path fill="#32BBCF" opacity="1.000000" stroke="none" d=" M309.034912,135.839020   C305.894165,135.839020 302.753418,135.839020 299.161011,135.839020   C299.161011,129.363937 299.161011,122.974480 299.161011,116.435020   C282.025604,122.423531 271.826477,120.640350 264.608185,109.983795   C259.067688,101.804276 259.166351,89.462288 266.015900,80.527596   C272.232483,72.418602 286.302063,70.223175 298.118988,75.862358   C300.276062,70.772011 304.747101,73.826561 308.571808,73.550354   C309.020691,94.664185 309.027802,115.251602 309.034912,135.839020  M287.139099,110.999832   C294.179199,109.962982 297.349518,105.116318 298.565643,98.798653   C299.612427,93.360786 297.995972,88.111038 293.849274,84.714470   C291.232971,82.571465 286.942139,80.976624 283.693146,81.394783   C275.379974,82.464729 270.985260,90.163353 272.004181,99.942963   C272.683838,106.466667 278.535339,110.997711 287.139099,110.999832  z"/>
<path fill="#32BBCF" opacity="1.000000" stroke="none" d=" M117.837494,120.371788   C104.500496,116.025864 96.694748,107.086075 94.071686,93.901428   C91.058800,78.757339 96.691734,66.810577 108.826401,57.720848   C117.323715,51.355755 135.358017,50.875565 144.702179,56.238808   C156.366089,62.933517 162.540512,73.419876 162.720398,86.204765   C162.947250,102.326729 153.739105,117.603279 134.595657,120.843430   C129.280655,121.743027 123.646370,120.756126 117.837494,120.371788  M136.795593,61.315372   C135.813309,61.185501 134.790726,61.188660 133.854919,60.905289   C123.951195,57.906296 115.175011,61.297798 108.813530,68.092163   C97.093422,80.609802 98.168297,97.465439 111.853455,108.302383   C124.148216,118.038307 138.254135,115.447037 147.305267,105.759094   C161.477753,90.589432 155.748474,69.957748 136.795593,61.315372  z"/>
<path fill="#FFFFFF" opacity="1.000000" stroke="none" d=" M168.000000,85.000000   C168.000000,74.865364 168.000000,65.230736 168.000000,55.298557   C171.588364,55.298557 174.993240,55.298557 178.738159,55.298557   C178.738159,67.247421 178.738159,79.322701 178.738159,92.530075   C181.768784,89.989799 184.116074,88.143646 186.325272,86.144897   C190.720093,82.168701 194.541382,77.234390 199.557693,74.379128   C203.120117,72.351418 208.252319,73.081596 212.683884,72.580849   C212.814163,72.976631 212.944458,73.372414 213.074738,73.768188   C207.047562,80.145248 201.020386,86.522308 194.649048,93.263489   C201.032333,101.431007 208.026108,110.379654 215.186462,119.541443   C214.223236,119.829338 213.949966,119.918762 213.672592,119.992805   C202.995895,122.842873 198.317749,115.036537 193.040848,108.342216   C190.842346,105.553177 188.752670,102.678368 186.412308,99.575821   C182.045578,103.104156 178.225082,106.027985 178.836823,112.527710   C179.539764,119.996803 178.999847,120.046936 171.455795,120.000755   C170.481277,119.994789 169.506714,119.999947 168.000000,119.999947   C168.000000,108.353088 168.000000,96.926544 168.000000,85.000000  z"/>
<path fill="#FFFFFF" opacity="1.000000" stroke="none" d=" M217.762634,86.260651   C216.271942,83.936104 215.046799,81.881172 213.842484,79.861214   C224.035522,71.388206 239.124954,69.985153 248.642548,77.131844   C251.169052,79.028969 253.595016,82.778091 253.756454,85.800308   C254.357315,97.049202 253.996231,108.349472 253.996231,120.173645   C250.295670,118.970848 246.105820,122.126945 243.144577,117.548584   C237.038559,120.779800 229.955063,121.057472 222.919205,118.889992   C215.728867,116.674927 211.910889,110.313034 213.007874,103.507790   C213.982056,97.464523 220.669128,92.099197 227.469650,92.013824   C232.914017,91.945480 238.359940,92.000023 243.919373,92.000023   C240.608261,80.210709 233.467285,77.805588 222.973160,84.455650   C221.484451,85.399048 219.684219,85.850899 217.762634,86.260651  M242.103790,107.346756   C242.927155,104.756172 243.750519,102.165581 244.887833,98.587196   C238.318054,99.144264 233.088303,99.244423 228.027344,100.220093   C226.450836,100.524025 224.228409,103.227203 224.271530,104.777206   C224.329971,106.876778 225.774994,109.873978 227.523911,110.813988   C232.680878,113.585724 237.482834,111.829063 242.103790,107.346756  z"/>
<path fill="#32BBCF" opacity="1.000000" stroke="none" d=" M377.179260,90.045982   C374.049988,82.450127 370.718201,80.396278 363.197601,82.012451   C357.319916,83.275566 354.055511,87.729042 354.002350,94.592392   C353.938416,102.851608 353.987244,111.111710 353.987244,119.976936   C350.775818,119.976936 347.857819,119.976936 344.476746,119.449898   C344.013397,103.674896 344.013123,88.426941 344.012848,73.178978   C347.629456,73.543938 351.909119,71.114235 354.588196,75.465958   C362.673065,72.252007 370.858826,71.162560 379.016083,75.528610   C383.984894,78.188072 386.699677,82.400307 387.006714,88.959167   C386.994873,99.834373 386.983002,109.835945 386.971130,119.837517   C384.285339,119.883797 381.599579,119.930084 378.464172,119.448853   C378.005615,114.483177 378.096619,110.041985 377.961639,105.607666   C377.803589,100.417305 377.448730,95.232948 377.179260,90.045982  z"/>
<path fill="#32BBCF" opacity="1.000000" stroke="none" d=" M73.091759,63.970428   C61.754189,72.436333 57.952049,82.895920 60.783752,93.623314   C64.728630,108.567764 80.355629,117.436317 95.540359,112.903885   C97.406647,112.346832 101.203697,112.913353 101.671722,114.003899   C103.164711,117.482727 100.595970,118.934113 97.365334,120.083206   C77.726700,127.068497 56.105770,113.043297 52.714241,93.327400   C49.796856,76.367798 59.931507,58.329746 77.112389,53.440857   C84.181633,51.429272 91.275185,51.688320 98.273315,54.088268   C101.199158,55.091660 103.113235,57.134834 101.704865,59.935764   C101.112167,61.114491 97.746574,61.829247 96.029922,61.353466   C88.077965,59.149513 80.555984,59.204426 73.091759,63.970428  z"/>
<path fill="#32BBCF" opacity="1.000000" stroke="none" d=" M332.001007,79.100883   C332.000977,92.839325 332.000977,106.091202 332.000977,119.670761   C328.336761,119.670761 324.958344,119.670761 321.285095,119.670761   C321.285095,104.322746 321.285095,88.976631 321.285095,73.314453   C324.659637,73.314453 328.040802,73.314453 332.001038,73.314453   C332.001038,75.083115 332.001038,76.848717 332.001007,79.100883  z"/>
<path fill="#30BBD0" opacity="1.000000" stroke="none" d=" M320.001831,61.001968   C320.263397,55.950684 323.673248,54.890980 327.220367,55.141598   C330.401459,55.366352 333.773773,57.046677 332.811279,61.017117   C332.270996,63.245884 330.144501,66.237251 328.188019,66.732224   C324.339630,67.705811 320.637726,66.399155 320.001831,61.001968  z"/>
<path fill="#00FFFF" opacity="1.000000" stroke="none" d=" M309.443848,135.698914   C309.027802,115.251602 309.020691,94.664185 309.025024,73.618774   C309.356689,73.789871 309.956482,74.418961 309.956543,75.048073   C309.957703,95.218315 309.900879,115.388573 309.443848,135.698914  z"/>
<path fill="#1FBFDF" opacity="1.000000" stroke="none" d=" M343.606415,73.320747   C344.013123,88.426941 344.013397,103.674896 344.024658,119.380730   C343.692322,119.225418 343.049194,118.612053 343.049561,117.999062   C343.058075,103.153526 343.135223,88.308022 343.606415,73.320747  z"/>
<path fill="#00B5FF" opacity="1.000000" stroke="none" d=" M443.869812,114.534119   C443.529999,113.090736 443.048462,111.183449 443.036469,109.273232   C442.962982,97.554337 442.995758,85.834778 442.980225,73.660416   C443.312347,74.336884 443.952393,75.467117 443.957184,76.600052   C444.010132,89.089417 443.964264,101.579193 443.869812,114.534119  z"/>
<path fill="#16BDD1" opacity="1.000000" stroke="none" d=" M387.382324,119.702179   C386.983002,109.835945 386.994873,99.834373 387.024261,89.356308   C387.356598,90.386917 387.937836,91.893219 387.942291,93.401222   C387.968079,102.122871 387.857758,110.844933 387.382324,119.702179  z"/>
<path fill="#11B3D7" opacity="1.000000" stroke="none" d=" M377.102020,90.505463   C377.448730,95.232948 377.803589,100.417305 377.961639,105.607666   C378.096619,110.041985 378.005615,114.483177 378.021393,119.379173   C377.677521,118.375648 377.038788,116.917221 377.023834,115.452438   C376.940643,107.290794 377.008575,99.127602 377.102020,90.505463  z"/>
<path fill="none" opacity="1.000000" stroke="none" d=" M405.003235,94.245338   C406.331207,87.906898 409.081116,83.556374 415.508270,81.721069   C421.420410,80.032837 425.726196,82.061218 429.483490,86.041039   C433.929810,90.750725 434.058197,96.335388 431.489960,101.933640   C429.330322,106.641243 425.356689,108.664162 420.148773,109.074203   C411.152924,109.782501 404.862518,103.880013 405.003235,94.245338  z"/>
<path fill="none" opacity="1.000000" stroke="none" d=" M286.711487,111.000076   C278.535339,110.997711 272.683838,106.466667 272.004181,99.942963   C270.985260,90.163353 275.379974,82.464729 283.693146,81.394783   C286.942139,80.976624 291.232971,82.571465 293.849274,84.714470   C297.995972,88.111038 299.612427,93.360786 298.565643,98.798653   C297.349518,105.116318 294.179199,109.962982 286.711487,111.000076  z"/>
<path fill="none" opacity="1.000000" stroke="none" d=" M137.096146,61.585564   C155.748474,69.957748 161.477753,90.589432 147.305267,105.759094   C138.254135,115.447037 124.148216,118.038307 111.853455,108.302383   C98.168297,97.465439 97.093422,80.609802 108.813530,68.092163   C115.175011,61.297798 123.951195,57.906296 133.854919,60.905289   C134.790726,61.188660 135.813309,61.185501 137.096146,61.585564  M111.939735,97.201637   C111.680923,97.624969 111.403870,98.038338 111.166290,98.473267   C109.683250,101.188263 109.016693,104.150734 112.399612,105.585953   C115.428589,106.871033 116.930130,104.378960 118.053535,101.825508   C122.430847,91.876083 122.391296,81.965126 118.012718,72.039848   C116.896553,69.509766 115.349266,67.066345 112.272224,68.475380   C109.260750,69.854378 109.696434,72.513710 111.006813,75.224564   C114.330002,82.099442 115.083710,89.166458 111.939735,97.201637  z"/>
<path fill="none" opacity="1.000000" stroke="none" d=" M241.843903,107.645798   C237.482834,111.829063 232.680878,113.585724 227.523911,110.813988   C225.774994,109.873978 224.329971,106.876778 224.271530,104.777206   C224.228409,103.227203 226.450836,100.524025 228.027344,100.220093   C233.088303,99.244423 238.318054,99.144264 244.887833,98.587196   C243.750519,102.165581 242.927155,104.756172 241.843903,107.645798  z"/>
<path fill="#33BBCF" opacity="1.000000" stroke="none" d=" M111.973083,96.789917   C115.083710,89.166458 114.330002,82.099442 111.006813,75.224564   C109.696434,72.513710 109.260750,69.854378 112.272224,68.475380   C115.349266,67.066345 116.896553,69.509766 118.012718,72.039848   C122.391296,81.965126 122.430847,91.876083 118.053535,101.825508   C116.930130,104.378960 115.428589,106.871033 112.399612,105.585953   C109.016693,104.150734 109.683250,101.188263 111.166290,98.473267   C111.403870,98.038338 111.680923,97.624969 111.973083,96.789917  z"/>
</svg>